<svg width="80" height="80" viewBox="0 0 80 80" fill="none" xmlns="http://www.w3.org/2000/svg">
<path d="M68.378 52.6352C67.8192 51.5925 66.7815 50.8566 65.6016 50.6696L53.3164 48.7164C52.1315 48.5293 50.9118 48.9085 50.0536 49.7366C48.9136 50.8343 48.0007 52.1737 47.3845 53.643C42.7798 52.069 38.5139 49.4174 35.017 45.95L34.8 45.7329C31.3327 42.2357 28.6811 37.9677 27.107 33.3629C28.5737 32.7492 29.9157 31.8338 31.0133 30.6938C31.8415 29.8356 32.2206 28.6159 32.0336 27.431L30.0804 15.1458C29.8933 13.9659 29.1575 12.9282 28.1148 12.3694C27.6059 12.0976 27.0721 11.8631 26.5283 11.6735C25.2736 11.227 23.964 11 22.6319 11C16.2262 11.01 11.0102 16.2259 11 22.6344C11.0075 48.6045 32.1455 69.743 58.1181 69.75C64.5238 69.74 69.7398 64.5241 69.75 58.1181C69.75 56.7886 69.523 55.479 69.0765 54.2293C68.8844 53.6805 68.6499 53.1441 68.378 52.6352ZM58.1184 68.4728C32.8495 68.4653 12.2851 47.9007 12.2775 22.6344C12.2849 16.932 16.9322 12.2848 22.6347 12.2771C23.8171 12.2771 24.982 12.4792 26.102 12.8808C26.5885 13.0504 27.0624 13.2575 27.5114 13.4994C28.2048 13.8711 28.6938 14.5621 28.8185 15.3503L30.7717 27.6354C30.8964 28.4262 30.6445 29.2394 30.0932 29.8106C28.9881 30.9581 27.6062 31.8486 26.097 32.3874C25.7728 32.5022 25.5982 32.8564 25.7029 33.1832C27.3094 38.1971 30.1431 42.8469 33.8973 46.6331L34.1168 46.8526C37.9009 50.6043 42.5532 53.4377 47.5667 55.0444C47.896 55.1517 48.2477 54.9745 48.3624 54.6503C48.9013 53.1386 49.7918 51.7567 50.9393 50.6541C51.5105 50.1028 52.3262 49.8509 53.1144 49.9756L65.3996 51.9288C66.1878 52.0535 66.8788 52.5424 67.2504 53.2359C67.4899 53.6849 67.6994 54.1614 67.8716 54.6503C68.2707 55.7678 68.4727 56.9327 68.4727 58.1151C68.4653 63.8175 63.8184 68.4651 58.1184 68.4728Z" fill="#575757"/>
</svg>
